HIERARCHY
ROOT hip
{
	OFFSET 0.000000 0.000000 0.000000
	CHANNELS 6 Xposition Yposition Zposition Xrotation Zrotation Yrotation 
	JOINT abdomen
	{
		OFFSET 0.000000 3.422050 0.000000
		CHANNELS 3 Xrotation Zrotation Yrotation 
		JOINT chest
		{
			OFFSET 0.000000 8.486693 -0.684411
			CHANNELS 3 Xrotation Zrotation Yrotation 
			JOINT neck
			{
				OFFSET 0.000000 10.266162 -0.273764
				CHANNELS 3 Xrotation Zrotation Yrotation 
				JOINT head
				{
					OFFSET 0.000000 3.148285 0.000000
					CHANNELS 3 Xrotation Zrotation Yrotation 
					End Site
					{
						OFFSET 0.000000 3.148289 0.000000
					}
				}
			}
			JOINT lCollar
			{
				OFFSET 3.422053 6.707223 -0.821293
				CHANNELS 3 Yrotation Zrotation Xrotation 
				JOINT lShldr
				{
					OFFSET 3.285171 0.000000 0.000000
					CHANNELS 3 Zrotation Yrotation Xrotation 
					JOINT lForeArm
					{
						OFFSET 10.129278 0.000000 0.000000
						CHANNELS 3 Yrotation Zrotation Xrotation 
						JOINT lHand
						{
							OFFSET 8.486692 0.000000 0.000000
							CHANNELS 3 Zrotation Yrotation Xrotation 
							End Site
							{
								OFFSET 4.106464 0.000000 0.000000
							}
						}
					}
				}
			}
			JOINT rCollar
			{
				OFFSET -3.558935 6.707223 -0.821293
				CHANNELS 3 Yrotation Zrotation Xrotation 
				JOINT rShldr
				{
					OFFSET -3.148289 0.000000 0.000000
					CHANNELS 3 Zrotation Yrotation Xrotation 
					JOINT rForeArm
					{
						OFFSET -10.266159 0.000000 0.000000
						CHANNELS 3 Yrotation Zrotation Xrotation 
						JOINT rHand
						{
							OFFSET -8.349810 0.000000 0.000000
							CHANNELS 3 Zrotation Yrotation Xrotation 
							End Site
							{
								OFFSET -4.106464 0.000000 0.000000
							}
						}
					}
				}
			}
		}
	}
	JOINT lThigh
	{
		OFFSET 5.338403 -1.642589 1.368821
		CHANNELS 3 Xrotation Zrotation Yrotation 
		JOINT lShin
		{
			OFFSET -2.053232 -20.121670 0.000000
			CHANNELS 3 Xrotation Zrotation Yrotation 
			JOINT lFoot
			{
				OFFSET 0.000000 -19.300380 -1.231939
				CHANNELS 3 Xrotation Yrotation Zrotation 
				End Site
				{
					OFFSET 0.000000 -2.463878 4.653993
				}
			}
		}
	}
	JOINT rThigh
	{
		OFFSET -5.338403 -1.642589 1.368821
		CHANNELS 3 Xrotation Zrotation Yrotation 
		JOINT rShin
		{
			OFFSET 2.053232 -20.121670 0.000000
			CHANNELS 3 Xrotation Zrotation Yrotation 
			JOINT rFoot
			{
				OFFSET 0.000000 -19.300380 -1.231939
				CHANNELS 3 Xrotation Yrotation Zrotation 
				End Site
				{
					OFFSET 0.000000 -2.463878 4.653993
				}
			}
		}
	}
}
MOTION
Frames: 19
Frame Time: 0.050000
0.000000 43.528500 0.000000 0.000000 0.000000 0.000000 0.000000 0.000000 0.000000 0.000000 0.000000 0.000000 0.000000 0.000000 0.000000 0.000000 0.000000 0.000000 0.000000 0.000000 0.000000 0.000000 0.000000 0.000000 0.000000 0.000000 0.000000 0.000000 0.000000 0.000000 0.000000 0.000000 0.000000 0.000000 0.000000 0.000000 0.000000 0.000000 0.000000 0.000000 0.000000 0.000000 0.000000 0.000000 0.000000 0.000000 0.000000 0.000000 0.000000 0.000000 0.000000 0.000000 0.000000 0.000000 0.000000 0.000000 0.000000 0.000000 0.000000 0.000000 
0.000000 19.267300 30.166555 -89.996941 0.254758 -179.732864 0.933400 -0.354786 -0.452290 36.760429 -1.044812 -0.842830 8.991555 0.000000 0.000000 -64.018028 0.000000 0.000000 7.982817 24.148188 -41.750851 -52.894306 -55.709129 3.025331 -65.789253 58.360477 -80.158852 -35.659023 -17.447290 -3.004568 -10.055225 -24.634062 -42.523880 53.838676 55.297043 3.847299 65.804321 -58.509827 -80.093742 34.496983 18.443708 -3.410161 -85.774734 32.779743 -23.161839 88.155952 -16.728260 0.811093 42.475132 4.052909 6.560281 -92.495522 -35.321678 27.173450 88.136391 16.663603 -0.782853 43.072289 -4.085596 -6.592494 
0.000000 19.267300 30.166555 -89.996941 0.254758 -179.732864 0.290971 -0.354637 -0.452128 37.260181 -1.044985 -0.842677 8.991555 0.000000 0.000000 -63.445709 0.000000 0.000000 7.380352 24.611761 -41.330276 -51.795185 -55.535194 2.016614 -64.397118 58.303978 -81.323753 -36.075283 -17.632517 -2.850126 -9.360332 -25.030659 -42.063831 52.723324 55.165031 2.836077 64.439079 -58.453892 -81.236153 34.980721 18.550346 -3.219282 -85.774734 32.779743 -23.161839 88.155952 -16.728260 0.811093 42.475132 4.052909 6.560282 -92.495522 -35.321678 27.173450 88.136406 16.663605 -0.782853 43.072289 -4.085596 -6.592494 
0.000000 19.267300 30.166555 -89.996941 0.254758 -179.732864 -0.351701 -0.354485 -0.451967 37.760048 -1.045159 -0.842525 8.991555 0.000000 0.000000 -62.873219 0.000000 0.000000 6.771590 25.071489 -40.902561 -50.706211 -55.350376 1.018141 -63.009308 58.232628 -82.484146 -36.492561 -17.816696 -2.694090 -8.659306 -25.422344 -41.596748 51.615627 55.021824 1.832608 63.078075 -58.383747 -82.374207 35.465218 18.655468 -3.027302 -85.774727 32.779736 -23.161837 88.155952 -16.728260 0.811094 42.475124 4.052909 6.560281 -92.495514 -35.321674 27.173447 88.136391 16.663603 -0.782854 43.072285 -4.085595 -6.592494 
0.000000 19.267300 30.166555 -89.996941 0.254758 -179.732864 -0.994574 -0.354332 -0.451808 38.260014 -1.045335 -0.842375 8.991555 0.000000 0.000000 -62.300568 0.000000 0.000000 6.156482 25.527233 -40.467655 -49.627857 -55.154781 0.030441 -61.627007 58.146515 -83.638855 -36.910866 -17.999819 -2.536461 -7.952156 -25.808994 -41.122650 50.516163 54.867516 0.837507 61.722397 -58.299450 -83.506729 35.950481 18.759068 -2.834240 -85.774734 32.779743 -23.161839 88.155952 -16.728260 0.811093 42.475132 4.052909 6.560281 -92.495522 -35.321678 27.173450 88.136391 16.663603 -0.782853 43.072289 -4.085596 -6.592494 
0.000000 19.267300 30.166555 -89.996941 0.254758 -179.732864 -1.637610 -0.354177 -0.451651 38.760052 -1.045511 -0.842226 8.991555 0.000000 0.000000 -61.727837 0.000000 0.000000 5.534982 25.978861 -40.025517 -48.560680 -54.948650 -0.945987 -60.251427 58.045742 -84.786652 -37.330189 -18.181856 -2.377246 -7.238892 -26.190439 -40.641537 49.425556 54.702267 -0.148617 60.373219 -58.201099 -84.632545 36.436466 18.861124 -2.640112 -85.774734 32.779743 -23.161839 88.155952 -16.728262 0.811092 42.475132 4.052909 6.560282 -92.495522 -35.321678 27.173450 88.136398 16.663605 -0.782853 43.072289 -4.085596 -6.592494 
0.000000 19.267300 30.166555 -89.996941 0.254758 -179.732864 -2.280768 -0.354020 -0.451495 39.260143 -1.045689 -0.842079 8.991555 0.000000 0.000000 -61.154987 0.000000 0.000000 4.907048 26.426235 -39.576118 -47.505096 -54.732151 -1.910687 -58.883739 57.930447 -85.926361 -37.750504 -18.362795 -2.216450 -6.519536 -26.566547 -40.153435 48.344383 54.526264 -1.125206 59.031639 -58.088886 -85.750687 36.923168 18.961634 -2.444939 -85.774727 32.779739 -23.161839 88.155945 -16.728260 0.811093 42.475128 4.052909 6.560281 -92.495522 -35.321674 27.173452 88.136391 16.663603 -0.782853 43.072281 -4.085595 -6.592493 
0.000000 19.267300 30.166555 -89.996941 0.254758 -179.732864 -2.924006 -0.353861 -0.451341 39.760284 -1.045869 -0.841934 8.991555 0.000000 0.000000 -60.582104 0.000000 0.000000 4.272640 26.869213 -39.119415 -46.461548 -54.505493 -2.863240 -57.525043 57.800777 -87.056892 -38.171833 -18.542625 -2.054082 -5.794119 -26.937189 -39.658398 47.273113 54.339611 -2.091748 57.698647 -57.962852 -86.859940 37.410538 19.060566 -2.248737 -85.774734 32.779743 -23.161839 88.155952 -16.728260 0.811093 42.475132 4.052909 6.560281 -92.495522 -35.321678 27.173450 88.136391 16.663603 -0.782853 43.072285 -4.085596 -6.592493 
0.000000 19.267300 30.166555 -89.996941 0.254758 -179.732864 -3.567285 -0.353701 -0.451189 40.260429 -1.046050 -0.841790 8.991555 0.000000 0.000000 -60.009197 0.000000 0.000000 3.631724 27.307655 -38.655376 -45.430382 -54.268848 -3.803267 -56.176392 57.656940 -88.177223 -38.594154 -18.721319 -1.890146 -5.062669 -27.302202 -39.156425 46.212288 54.142536 -3.047734 56.375340 -57.823269 -87.959450 37.898579 19.157930 -2.051531 -85.774734 32.779743 -23.161839 88.155952 -16.728260 0.811093 42.475132 4.052909 6.560281 -92.495522 -35.321678 27.173450 88.136391 16.663603 -0.782853 43.072289 -4.085596 -6.592494 
0.000000 19.267300 30.166555 -89.996941 0.254758 -179.732864 -4.210565 -0.353539 -0.451039 40.760582 -1.046231 -0.841647 8.991555 0.000000 0.000000 -59.436264 0.000000 0.000000 2.984271 27.741421 -38.183983 -44.411961 -54.022446 -4.730427 -54.838833 57.499130 -89.286308 -39.017452 -18.898863 -1.724647 -4.325232 -27.661472 -38.647606 45.162323 53.935188 -3.992728 55.062634 -57.670280 -89.048187 38.387253 19.253695 -1.853334 -85.774734 32.779743 -23.161839 88.155952 -16.728260 0.811093 42.475132 4.052909 6.560281 -92.495522 -35.321682 27.173450 88.136391 16.663605 -0.782854 43.072289 -4.085596 -6.592494 
0.000000 19.267300 30.166555 -89.996941 0.254758 -179.732864 -4.853804 -0.353376 -0.450891 41.260719 -1.046415 -0.841506 8.991555 0.000000 0.000000 -58.863392 0.000000 0.000000 2.330253 28.170378 -37.705212 -43.406582 -53.766514 -5.644414 -53.513268 57.327534 -90.383186 -39.441727 -19.075226 -1.557593 -3.581846 -28.014830 -38.131931 44.123676 53.717789 -4.926308 53.761395 -57.504074 -90.125252 38.876556 19.347864 -1.654174 -85.774734 32.779743 -23.161839 88.155952 -16.728262 0.811094 42.475132 4.052909 6.560281 -92.495522 -35.321678 27.173450 88.136391 16.663603 -0.782853 43.072292 -4.085596 -6.592494 
0.000000 19.267300 30.166555 -89.996941 0.254758 -179.732864 -5.496961 -0.353210 -0.450744 41.760811 -1.046599 -0.841367 8.991555 0.000000 0.000000 -58.290543 0.000000 0.000000 1.669652 28.594389 -37.219051 -42.414528 -53.501286 -6.544976 -52.200603 57.142422 -91.466995 -39.866978 -19.250416 -1.388992 -2.832573 -28.362179 -37.609520 43.096706 53.490528 -5.848082 52.472504 -57.324898 -91.189842 39.366440 19.440409 -1.454065 -85.774734 32.779743 -23.161839 88.155952 -16.728260 0.811093 42.475132 4.052909 6.560281 -92.495522 -35.321678 27.173450 88.136391 16.663603 -0.782853 43.072289 -4.085596 -6.592494 
0.000000 19.267300 30.166555 -89.996941 0.254758 -179.732864 -6.139997 -0.353043 -0.450599 42.260849 -1.046785 -0.841230 8.991555 0.000000 0.000000 -57.717796 0.000000 0.000000 1.002450 29.013306 -36.725483 -41.435997 -53.226955 -7.431872 -50.901711 56.944069 -92.536919 -40.293198 -19.424398 -1.218854 -2.077471 -28.703348 -37.080399 42.081749 53.253586 -6.757717 51.196709 -57.132954 -92.241104 39.856895 19.531330 -1.253034 -85.774734 32.779743 -23.161839 88.155952 -16.728260 0.811093 42.475132 4.052909 6.560281 -92.495522 -35.321678 27.173450 88.136391 16.663603 -0.782853 43.072289 -4.085596 -6.592494 
0.000000 19.267300 30.166555 -89.996941 0.254758 -179.732864 -6.782870 -0.352875 -0.450456 42.760815 -1.046971 -0.841094 8.991555 0.000000 0.000000 -57.145172 0.000000 0.000000 0.328640 29.427000 -36.224522 -40.471203 -52.943760 -8.304913 -49.617283 56.732700 -93.592194 -40.720364 -19.597162 -1.047184 -1.316609 -29.038216 -36.544636 41.079128 53.007210 -7.654905 49.934814 -56.928566 -93.278397 40.347889 19.620611 -1.051098 -85.774734 32.779743 -23.161839 88.155952 -16.728260 0.811093 42.475132 4.052909 6.560281 -92.495522 -35.321674 27.173452 88.136391 16.663603 -0.782853 43.072289 -4.085596 -6.592494 
0.000000 19.267300 30.166555 -89.996941 0.254758 -179.732864 -7.425543 -0.352705 -0.450316 43.260689 -1.047159 -0.840960 8.991555 0.000000 0.000000 -56.572674 0.000000 0.000000 -0.351785 29.835325 -35.716137 -39.520294 -52.651939 -9.163943 -48.348019 56.508598 -94.632095 -41.148487 -19.768688 -0.873989 -0.550065 -29.366659 -36.002342 40.089119 52.751579 -8.539353 48.687370 -56.711922 -94.301041 40.839405 19.708246 -0.848279 -85.774734 32.779743 -23.161839 88.155952 -16.728260 0.811093 42.475132 4.052909 6.560281 -92.495522 -35.321678 27.173450 88.136391 16.663603 -0.782853 43.072285 -4.085595 -6.592494 
0.000000 19.267300 30.166555 -89.996941 0.254758 -179.732864 -8.067970 -0.352533 -0.450177 43.760441 -1.047348 -0.840827 8.991555 0.000000 0.000000 -56.000351 0.000000 0.000000 -1.038825 30.238146 -35.200348 -38.583401 -52.351723 -10.008841 -47.094555 56.272076 -95.656052 -41.577522 -19.938955 -0.699281 0.222079 -29.688545 -35.453579 39.111950 52.486935 -9.410844 47.455059 -56.483334 -95.308395 41.331409 19.794216 -0.644600 -85.774734 32.779743 -23.161839 88.155952 -16.728260 0.811093 42.475132 4.052909 6.560281 -92.495522 -35.321678 27.173450 88.136391 16.663603 -0.782853 43.072289 -4.085596 -6.592494 
0.000000 19.267300 30.166555 -89.996941 0.254758 -179.732864 -7.425543 -0.352705 -0.450316 43.260689 -1.047159 -0.840960 8.991555 0.000000 0.000000 -56.572670 0.000000 0.000000 -0.351787 29.835325 -35.716133 -39.520298 -52.651947 -9.163953 -48.348019 56.508614 -94.632126 -41.148487 -19.768688 -0.873989 -0.550064 -29.366659 -36.002338 40.089119 52.751579 -8.539353 48.687389 -56.711941 -94.301056 40.839401 19.708244 -0.848279 -85.774734 32.779743 -23.161839 88.155952 -16.728260 0.811093 42.475132 4.052909 6.560281 -92.495522 -35.321678 27.173450 88.136391 16.663603 -0.782853 43.072289 -4.085596 -6.592494 
0.000000 19.267300 30.166555 -89.996941 0.254758 -179.732864 -6.782870 -0.352875 -0.450456 42.760815 -1.046971 -0.841094 8.991555 0.000000 0.000000 -57.145164 0.000000 0.000000 0.328640 29.427004 -36.224522 -40.471203 -52.943760 -8.304913 -49.617283 56.732700 -93.592194 -40.720364 -19.597162 -1.047184 -1.316610 -29.038216 -36.544640 41.079128 53.007210 -7.654905 49.934814 -56.928574 -93.278419 40.347881 19.620607 -1.051099 -85.774734 32.779743 -23.161839 88.155952 -16.728260 0.811093 42.475132 4.052909 6.560281 -92.495522 -35.321678 27.173450 88.136391 16.663603 -0.782853 43.072289 -4.085596 -6.592494 
0.000000 19.267300 30.166555 -89.996941 0.254758 -179.732864 -6.139997 -0.353043 -0.450599 42.260849 -1.046785 -0.841230 8.991555 0.000000 0.000000 -57.717796 0.000000 0.000000 1.002450 29.013306 -36.725483 -41.435993 -53.226948 -7.431871 -50.901711 56.944069 -92.536919 -40.293198 -19.424398 -1.218854 -2.077470 -28.703344 -37.080399 42.081745 53.253582 -6.757715 51.196709 -57.132954 -92.241104 39.856895 19.531330 -1.253034 -85.774734 32.779743 -23.161839 88.155952 -16.728260 0.811093 42.475132 4.052909 6.560281 -92.495522 -35.321678 27.173450 88.136391 16.663603 -0.782853 43.072289 -4.085596 -6.592494 
